<?xml version="1.0" standalone="no"?>
<!DOCTYPE svg PUBLIC "-//W3C//DTD SVG 20010904//EN"
 "http://www.w3.org/TR/2001/REC-SVG-20010904/DTD/svg10.dtd">
<svg version="1.0" xmlns="http://www.w3.org/2000/svg"
 width="900.000000pt" height="900.000000pt" viewBox="0 0 900.000000 900.000000"
 preserveAspectRatio="xMidYMid meet">

<g transform="translate(0.000000,900.000000) scale(0.100000,-0.100000)"
fill="#000000" stroke="none">
<path d="M4215 8395 c-563 -56 -1046 -259 -1525 -640 -358 -284 -551 -503
-747 -845 -76 -132 -180 -340 -170 -340 1 0 16 14 32 32 17 18 24 28 16 23
-10 -5 -12 -4 -7 4 5 8 12 9 19 2 8 -6 19 -5 31 5 11 8 25 14 30 14 6 0 2 -7
-8 -15 -16 -12 -16 -15 -4 -15 8 0 30 29 50 68 116 221 327 432 638 640 357
238 867 418 1415 498 271 39 720 43 1025 9 29 -4 38 -2 26 3 -14 6 -16 11 -8
16 7 4 12 5 12 1 0 -3 13 1 30 10 16 8 33 15 37 14 22 -4 43 2 38 11 -5 8 15
16 97 35 15 4 29 13 32 21 3 8 16 14 29 14 13 0 32 7 43 15 10 8 30 15 44 15
14 0 35 7 46 15 12 8 24 12 27 9 3 -4 27 5 52 19 25 14 43 20 39 14 -3 -7 1
-4 9 5 8 10 16 15 19 12 5 -5 55 14 108 41 25 13 30 15 53 16 34 1 -243 109
-398 154 -417 121 -754 157 -1130 120z"/>
<path d="M4380 7283 c-99 -6 -353 -44 -455 -68 -415 -99 -784 -276 -1093 -524
-124 -101 -248 -225 -302 -304 -45 -64 -139 -239 -157 -292 -6 -16 -18 -47
-27 -67 -14 -32 -14 -37 -1 -32 8 3 13 11 12 17 -1 7 6 11 15 9 9 -1 19 2 23
8 3 5 13 10 21 10 9 0 22 7 31 15 12 13 18 13 31 3 10 -9 13 -9 9 -1 -4 6 -3
14 3 18 5 3 10 2 10 -3 0 -18 30 -8 36 12 19 61 139 296 167 325 78 81 256
208 428 303 276 154 492 230 810 287 283 51 718 73 946 47 168 -19 156 -18
148 -6 -4 6 1 7 11 3 13 -5 16 -3 11 10 -4 11 -1 15 11 15 20 -1 202 61 220
75 6 5 26 7 44 3 47 -9 31 -1 -52 27 -210 72 -426 108 -665 111 -99 1 -205 1
-235 -1z"/>
<path d="M6772 5005 c0 -16 2 -22 5 -12 2 9 2 23 0 30 -3 6 -5 -1 -5 -18z"/>
<path d="M6662 4700 c0 -14 2 -19 5 -12 2 6 2 18 0 25 -3 6 -5 1 -5 -13z"/>
<path d="M6742 4700 c0 -14 2 -19 5 -12 2 6 2 18 0 25 -3 6 -5 1 -5 -13z"/>
<path d="M6732 4650 c0 -14 2 -19 5 -12 2 6 2 18 0 25 -3 6 -5 1 -5 -13z"/>
<path d="M6721 4604 c0 -11 3 -14 6 -6 3 7 2 16 -1 19 -3 4 -6 -2 -5 -13z"/>
<path d="M6652 4580 c0 -19 2 -27 5 -17 2 9 2 25 0 35 -3 9 -5 1 -5 -18z"/>
<path d="M6635 4450 c-4 -39 -5 -73 -2 -76 2 -3 8 27 11 67 4 39 5 73 3 76 -3
2 -8 -28 -12 -67z"/>
<path d="M6702 4500 c0 -14 2 -19 5 -12 2 6 2 18 0 25 -3 6 -5 1 -5 -13z"/>
<path d="M6683 4455 c-6 -6 -8 -18 -3 -24 5 -9 9 -5 13 10 7 28 6 31 -10 14z"/>
<path d="M6671 4394 c0 -11 3 -14 6 -6 3 7 2 16 -1 19 -3 4 -6 -2 -5 -13z"/>
<path d="M6661 4354 c0 -11 3 -14 6 -6 3 7 2 16 -1 19 -3 4 -6 -2 -5 -13z"/>
<path d="M6621 4318 c0 -14 2 -34 5 -43 6 -14 10 -10 21 15 7 18 11 35 9 37
-2 3 -8 -6 -12 -19 -8 -22 -8 -22 -15 7 -7 30 -7 30 -8 3z"/>
<path d="M6616 4251 c3 -13 2 -26 -4 -30 -5 -3 -13 -22 -16 -41 -7 -34 -6 -33
14 10 16 34 19 49 10 65 -9 18 -10 18 -4 -4z"/>
<path d="M2700 4094 c0 -2 54 -31 120 -64 67 -33 118 -55 115 -50 -3 5 7 12
22 16 44 9 50 12 27 13 -12 1 -41 8 -65 17 -87 31 -219 72 -219 68z"/>
<path d="M7206 4085 c-9 -26 -7 -32 5 -12 6 10 9 21 6 23 -2 3 -7 -2 -11 -11z"/>
<path d="M6233 4078 c-13 -6 -23 -15 -23 -20 0 -14 16 -9 35 12 20 22 19 23
-12 8z"/>
<path d="M6185 4051 c3 -6 -4 -15 -16 -21 -11 -7 -18 -14 -15 -17 7 -7 46 26
46 39 0 4 -5 8 -11 8 -5 0 -8 -4 -4 -9z"/>
<path d="M6148 4043 c7 -3 16 -2 19 1 4 3 -2 6 -13 5 -11 0 -14 -3 -6 -6z"/>
<path d="M6068 4023 c-10 -2 -18 -9 -18 -14 0 -6 10 -5 23 2 37 20 36 23 -5
12z"/>
<path d="M5955 3989 c-27 -10 -36 -16 -20 -13 17 3 38 7 47 9 10 2 26 8 35 14
30 17 -6 12 -62 -10z"/>
<path d="M6106 3993 c-6 -14 -5 -15 5 -6 7 7 10 15 7 18 -3 3 -9 -2 -12 -12z"/>
<path d="M7165 3979 c-4 -6 -5 -12 -2 -15 2 -3 7 2 10 11 7 17 1 20 -8 4z"/>
<path d="M7336 3975 c-9 -26 -7 -32 5 -12 6 10 9 21 6 23 -2 3 -7 -2 -11 -11z"/>
<path d="M6049 3963 c-13 -16 -12 -17 4 -4 16 13 21 21 13 21 -2 0 -10 -8 -17
-17z"/>
<path d="M5858 3963 c7 -3 16 -2 19 1 4 3 -2 6 -13 5 -11 0 -14 -3 -6 -6z"/>
<path d="M6015 3950 c-3 -5 -12 -7 -19 -4 -7 3 -19 -3 -27 -12 -13 -15 -11
-16 11 -9 24 7 62 35 48 35 -4 0 -9 -4 -13 -10z"/>
<path d="M5770 3940 c0 -5 7 -7 15 -4 8 4 15 8 15 10 0 2 -7 4 -15 4 -8 0 -15
-4 -15 -10z"/>
<path d="M5738 3933 c7 -3 16 -2 19 1 4 3 -2 6 -13 5 -11 0 -14 -3 -6 -6z"/>
<path d="M5673 3923 c9 -2 23 -2 30 0 6 3 -1 5 -18 5 -16 0 -22 -2 -12 -5z"/>
<path d="M5618 3913 c6 -2 18 -2 25 0 6 3 1 5 -13 5 -14 0 -19 -2 -12 -5z"/>
<path d="M5830 3912 c0 -4 5 -13 12 -20 9 -9 9 -12 -2 -12 -7 0 -11 -2 -8 -5
7 -8 38 5 38 16 0 5 -6 8 -12 7 -7 -2 -12 3 -10 10 1 6 -2 12 -8 12 -5 0 -10
-4 -10 -8z"/>
<path d="M5917 3909 c-9 -5 -23 -7 -30 -3 -9 5 -9 4 -1 -5 9 -10 18 -10 40 3
16 8 25 15 19 15 -5 0 -18 -4 -28 -10z"/>
<path d="M7302 3890 c-18 -29 -15 -38 4 -12 9 13 14 25 12 27 -2 2 -9 -5 -16
-15z"/>
<path d="M5373 3873 c9 -2 23 -2 30 0 6 3 -1 5 -18 5 -16 0 -22 -2 -12 -5z"/>
<path d="M5308 3863 c7 -3 16 -2 19 1 4 3 -2 6 -13 5 -11 0 -14 -3 -6 -6z"/>
<path d="M5740 3850 c-36 -11 -71 -17 -78 -15 -7 3 -10 0 -7 -5 3 -6 1 -10 -6
-10 -7 0 -10 -2 -8 -4 4 -5 170 41 178 49 7 8 -11 5 -79 -15z"/>
<path d="M4998 3833 c12 -2 30 -2 40 0 9 3 -1 5 -23 4 -22 0 -30 -2 -17 -4z"/>
<path d="M4878 3823 c7 -3 16 -2 19 1 4 3 -2 6 -13 5 -11 0 -14 -3 -6 -6z"/>
<path d="M5605 3810 c-3 -5 -1 -10 4 -10 6 0 11 5 11 10 0 6 -2 10 -4 10 -3 0
-8 -4 -11 -10z"/>
<path d="M5548 3793 c7 -3 16 -2 19 1 4 3 -2 6 -13 5 -11 0 -14 -3 -6 -6z"/>
<path d="M5470 3780 c-34 -7 -34 -7 -5 -8 17 0 39 3 50 8 24 10 4 10 -45 0z"/>
<path d="M7250 3769 c-7 -11 -10 -23 -7 -25 2 -2 9 7 15 21 14 30 7 33 -8 4z"/>
<path d="M5315 3750 c-14 -7 -8 -8 20 -3 22 3 42 7 44 9 9 8 -45 2 -64 -6z"/>
<path d="M5248 3733 c6 -2 18 -2 25 0 6 3 1 5 -13 5 -14 0 -19 -2 -12 -5z"/>
<path d="M7217 3695 c-9 -19 -15 -35 -12 -35 7 0 37 61 33 66 -3 2 -12 -12
-21 -31z"/>
<path d="M5088 3713 c6 -2 18 -2 25 0 6 3 1 5 -13 5 -14 0 -19 -2 -12 -5z"/>
<path d="M4993 3703 c9 -2 25 -2 35 0 9 3 1 5 -18 5 -19 0 -27 -2 -17 -5z"/>
<path d="M4918 3693 c12 -2 30 -2 40 0 9 3 -1 5 -23 4 -22 0 -30 -2 -17 -4z"/>
<path d="M7026 3683 c-6 -14 -5 -15 5 -6 7 7 10 15 7 18 -3 3 -9 -2 -12 -12z"/>
<path d="M4833 3683 c9 -2 25 -2 35 0 9 3 1 5 -18 5 -19 0 -27 -2 -17 -5z"/>
<path d="M7005 3650 c-3 -5 -1 -10 4 -10 6 0 11 5 11 10 0 6 -2 10 -4 10 -3 0
-8 -4 -11 -10z"/>
<path d="M7180 3612 c-21 -42 -22 -42 -16 -42 8 0 38 61 33 66 -2 2 -10 -8
-17 -24z"/>
<path d="M6976 3593 c-6 -14 -5 -15 5 -6 7 7 10 15 7 18 -3 3 -9 -2 -12 -12z"/>
<path d="M7146 3533 c-6 -14 -5 -15 5 -6 7 7 10 15 7 18 -3 3 -9 -2 -12 -12z"/>
<path d="M6930 3510 c-6 -11 -8 -20 -6 -20 3 0 10 9 16 20 6 11 8 20 6 20 -3
0 -10 -9 -16 -20z"/>
<path d="M6861 3394 c-12 -19 -16 -32 -11 -29 11 7 43 65 36 65 -2 0 -13 -16
-25 -36z"/>
<path d="M7043 3347 c-1 -11 -1 -18 0 -16 2 2 8 11 15 20 9 12 9 16 -1 16 -7
0 -14 -9 -14 -20z"/>
<path d="M6802 3300 c-13 -16 -21 -30 -18 -30 2 0 18 14 36 30 19 17 26 30 18
30 -8 0 -24 -13 -36 -30z"/>
<path d="M7020 3309 c0 -5 5 -7 10 -4 6 3 10 8 10 11 0 2 -4 4 -10 4 -5 0 -10
-5 -10 -11z"/>
<path d="M6836 3273 c-6 -14 -5 -15 5 -6 7 7 10 15 7 18 -3 3 -9 -2 -12 -12z"/>
<path d="M6674 3258 c-4 -7 -4 -10 1 -6 4 4 15 2 23 -5 11 -8 14 -8 9 0 -5 8
2 11 22 11 17 -1 29 -4 26 -7 -2 -4 5 -7 15 -7 14 0 16 3 8 13 -14 17 -95 17
-104 1z"/>
<path d="M6600 3250 c-11 -7 -5 -8 20 -4 43 8 51 14 19 14 -13 0 -31 -5 -39
-10z"/>
<path d="M6969 3256 c0 -1 -2 -11 -5 -24 -5 -26 10 -22 25 7 7 13 6 18 -5 18
-7 0 -14 -1 -15 -1z"/>
<path d="M6548 3243 c6 -2 18 -2 25 0 6 3 1 5 -13 5 -14 0 -19 -2 -12 -5z"/>
<path d="M6363 3223 c9 -2 23 -2 30 0 6 3 -1 5 -18 5 -16 0 -22 -2 -12 -5z"/>
<path d="M6418 3223 c7 -3 16 -2 19 1 4 3 -2 6 -13 5 -11 0 -14 -3 -6 -6z"/>
<path d="M6910 3219 c0 -4 10 -9 22 -12 20 -6 21 -7 4 -34 l-17 -28 21 24 c14
16 17 27 10 36 -5 6 -8 14 -5 16 2 3 -5 5 -15 5 -11 0 -20 -3 -20 -7z"/>
<path d="M6303 3213 c9 -2 23 -2 30 0 6 3 -1 5 -18 5 -16 0 -22 -2 -12 -5z"/>
<path d="M6228 3203 c7 -3 16 -2 19 1 4 3 -2 6 -13 5 -11 0 -14 -3 -6 -6z"/>
<path d="M6163 3193 c9 -2 25 -2 35 0 9 3 1 5 -18 5 -19 0 -27 -2 -17 -5z"/>
<path d="M6038 3183 c12 -2 32 -2 45 0 12 2 2 4 -23 4 -25 0 -35 -2 -22 -4z"/>
<path d="M5963 3173 c9 -2 23 -2 30 0 6 3 -1 5 -18 5 -16 0 -22 -2 -12 -5z"/>
<path d="M5903 3163 c9 -2 23 -2 30 0 6 3 -1 5 -18 5 -16 0 -22 -2 -12 -5z"/>
<path d="M3298 3143 c6 -2 18 -2 25 0 6 3 1 5 -13 5 -14 0 -19 -2 -12 -5z"/>
<path d="M5713 3143 c15 -2 39 -2 55 0 15 2 2 4 -28 4 -30 0 -43 -2 -27 -4z"/>
<path d="M5630 3136 c0 -2 11 -6 25 -8 13 -3 22 -1 19 3 -5 9 -44 13 -44 5z"/>
<path d="M6894 3118 l-19 -23 23 19 c12 11 22 21 22 23 0 8 -8 2 -26 -19z"/>
<path d="M5560 3126 c0 -2 11 -6 25 -8 13 -3 22 -1 19 3 -5 9 -44 13 -44 5z"/>
<path d="M5508 3113 c7 -3 16 -2 19 1 4 3 -2 6 -13 5 -11 0 -14 -3 -6 -6z"/>
<path d="M5300 3095 l-75 -12 90 -1 c56 0 82 3 70 8 -16 6 -12 9 20 12 38 4
38 5 5 5 -19 0 -69 -5 -110 -12z"/>
<path d="M3678 3093 c7 -3 16 -2 19 1 4 3 -2 6 -13 5 -11 0 -14 -3 -6 -6z"/>
<path d="M5508 3083 c12 -2 32 -2 45 0 12 2 2 4 -23 4 -25 0 -35 -2 -22 -4z"/>
<path d="M5608 3083 c18 -2 45 -2 60 0 15 2 0 4 -33 4 -33 0 -45 -2 -27 -4z"/>
<path d="M6008 3083 c160 -2 424 -2 585 0 160 1 29 2 -293 2 -322 0 -453 -1
-292 -2z"/>
<path d="M2148 3073 c6 -2 18 -2 25 0 6 3 1 5 -13 5 -14 0 -19 -2 -12 -5z"/>
<path d="M3078 3073 c79 -2 205 -2 280 0 75 1 11 3 -143 3 -154 0 -216 -2
-137 -3z"/>
<path d="M5592 1937 l3 -573 28 -43 c40 -60 95 -83 189 -79 l73 3 0 70 0 70
-46 3 c-89 6 -84 -31 -87 583 l-3 539 -80 0 -80 0 3 -573z"/>
<path d="M7760 2339 l0 -171 -22 6 c-13 4 -46 12 -74 18 -108 24 -222 -29
-276 -127 l-28 -50 0 -304 0 -303 25 -47 c103 -187 406 -185 508 4 22 39 22
48 25 593 l3 552 -81 0 -80 0 0 -171z m-61 -304 c55 -28 61 -58 61 -325 0
-200 -3 -248 -16 -275 -41 -86 -155 -94 -204 -13 -19 31 -20 50 -20 288 0 238
1 257 20 288 31 51 101 68 159 37z"/>
<path d="M1267 2183 c-62 -21 -129 -80 -159 -141 -23 -46 -23 -53 -23 -337 0
-324 2 -331 72 -401 57 -57 114 -79 208 -79 67 0 88 5 131 27 29 15 65 44 82
64 38 46 64 128 60 190 l-3 49 -69 3 c-79 3 -86 -1 -86 -66 0 -97 -76 -154
-156 -116 -71 34 -74 47 -74 332 0 278 4 298 60 327 50 26 97 20 136 -19 30
-30 34 -40 34 -87 0 -76 5 -81 86 -77 l69 3 -1 75 c-1 129 -66 219 -183 254
-68 20 -122 20 -184 -1z"/>
<path d="M1900 2181 c-70 -22 -140 -68 -140 -92 0 -34 33 -89 53 -89 10 0 34
12 54 27 29 22 48 28 102 31 114 5 161 -45 161 -176 l0 -69 -112 -5 c-89 -4
-122 -9 -154 -26 -57 -29 -108 -90 -129 -152 -23 -70 -17 -198 12 -255 102
-195 410 -205 520 -17 l28 47 3 272 c4 332 -1 360 -81 438 -84 82 -196 105
-317 66z m230 -615 c0 -119 -1 -126 -25 -155 -38 -44 -82 -56 -134 -35 -62 25
-84 62 -84 145 0 117 54 167 181 168 l62 1 0 -124z"/>
<path d="M2590 2181 c-69 -24 -131 -89 -151 -158 -11 -37 -14 -130 -14 -413
l0 -365 74 -3 c53 -2 77 1 82 10 5 7 9 172 9 366 0 312 2 357 17 382 39 67
145 67 190 1 16 -23 19 -64 23 -391 l5 -365 74 -3 c53 -2 77 1 82 10 5 7 9
173 9 368 0 334 1 357 20 387 34 57 142 57 184 0 20 -27 21 -43 26 -395 l5
-367 77 -3 c74 -3 78 -2 83 21 4 13 5 179 3 368 -5 397 -8 418 -82 492 -99 99
-284 102 -369 7 l-35 -38 -21 29 c-52 70 -186 97 -291 60z"/>
<path d="M3703 2183 c-65 -19 -127 -71 -158 -134 l-25 -49 2 -532 3 -533 54
-3 c106 -6 101 -14 101 162 0 84 3 155 6 158 3 3 19 -1 37 -10 88 -44 211 -19
287 57 68 69 71 87 70 416 -1 326 -4 341 -84 412 -76 67 -185 88 -293 56z
m151 -143 c14 -5 35 -24 46 -42 19 -31 20 -51 20 -288 0 -232 -2 -258 -19
-286 -51 -83 -170 -76 -207 13 -18 42 -20 493 -3 542 20 58 97 86 163 61z"/>
<path d="M5070 2185 c-59 -19 -123 -74 -149 -128 -16 -32 -21 -63 -21 -118 0
-64 4 -81 30 -125 32 -57 60 -81 198 -173 135 -89 160 -120 148 -185 -14 -71
-100 -114 -167 -82 -43 20 -62 49 -69 106 l-5 45 -66 3 c-89 4 -96 -5 -80 -98
16 -88 52 -140 123 -177 47 -25 64 -28 148 -28 83 0 101 3 145 27 95 50 135
118 135 231 0 70 -2 78 -39 133 -43 64 -91 104 -221 183 -47 29 -93 62 -102
74 -25 31 -24 107 2 139 64 83 200 41 200 -61 0 -49 14 -61 71 -61 72 0 79 5
79 59 0 102 -57 190 -147 228 -52 21 -159 26 -213 8z"/>
<path d="M6153 2185 c-62 -17 -153 -71 -153 -91 0 -28 33 -94 46 -94 8 0 38
14 68 30 94 53 195 38 238 -36 20 -35 31 -104 22 -151 l-6 -33 -87 0 c-147 0
-231 -39 -286 -134 -35 -59 -44 -178 -22 -257 67 -230 419 -269 537 -59 25 45
25 48 28 326 3 264 2 284 -18 336 -25 67 -77 123 -139 151 -58 26 -160 31
-228 12z m218 -620 c-3 -138 -14 -166 -72 -189 -40 -16 -77 -11 -122 18 -37
25 -50 66 -45 145 3 61 7 74 33 101 36 38 73 49 149 47 l60 -2 -3 -120z"/>
<path d="M6849 2185 c-56 -18 -132 -83 -162 -139 -22 -40 -22 -48 -22 -421 l0
-380 80 0 80 0 5 373 5 374 33 29 c55 49 140 37 178 -24 18 -30 19 -58 22
-395 l3 -363 77 3 77 3 3 359 c3 398 -1 429 -58 498 -65 79 -214 117 -321 83z"/>
<path d="M4210 1802 l0 -378 26 -52 c60 -121 205 -179 345 -139 105 31 169
102 188 210 12 67 16 674 5 715 -6 22 -11 23 -83 20 l-76 -3 -5 -365 c-4 -271
-8 -371 -18 -388 -48 -84 -186 -68 -212 26 -6 22 -10 177 -10 385 l0 347 -80
0 -80 0 0 -378z"/>
</g>
</svg>
